<?xml version="1.0" encoding="UTF-8"?>
<svg fill="none" viewBox="0 0 180 41" xmlns="http://www.w3.org/2000/svg">
<g clip-path="url(#a)">
<path d="m-1.2207e-4 11.496c0-6.349 5.1469-11.496 11.496-11.496h17.244c6.3491 0 11.496 5.1469 11.496 11.496v17.244c0 6.349-5.1468 11.496-11.496 11.496h-17.244c-6.349 0-11.496-5.1469-11.496-11.496v-17.244z" fill="#095DF3"/>
<circle cx="2.1577" cy="25.68" r="4.0236" fill="#226DF4"/>
<rect x="-4.8732" y="24.319" width="18.31" height="3.195" rx="1.5975" fill="#226DF4"/>
<rect x="26.213" y="24.319" width="27.879" height="3.195" rx="1.5975" fill="#226DF4"/>
<circle cx="14.149" cy="25.68" r="4.0236" fill="#F39609"/>
<rect x="-4.8732" y="12.721" width="49.284" height="3.195" rx="1.5975" fill="#226DF4"/>
<circle cx="26.14" cy="25.68" r="4.0236" fill="#fff"/>
<circle cx="38.131" cy="25.68" r="4.0236" fill="#226DF4"/>
<ellipse cx="-3.8644" cy="14.319" rx="3.997" ry="4.26" fill="#226DF4"/>
<circle cx="8.1532" cy="14.082" r="4.0236" fill="#226DF4"/>
<circle cx="20.118" cy="14.082" r="4.0236" fill="#fff"/>
<circle cx="32.135" cy="14.082" r="4.0236" fill="#226DF4"/>
<ellipse cx="44.1" cy="14.319" rx="3.997" ry="4.26" fill="#226DF4"/>
</g>
<path d="m70.278 34.238h-2.4034c-0.7153 0-1.3591-0.1288-1.9313-0.3863-0.5437-0.2575-0.9729-0.6724-1.2876-1.2446s-0.4721-1.3448-0.4721-2.3176v-8.6265l-0.1287-0.6009c0-1.3161-0.3291-2.4177-0.9872-3.3046-0.6294-0.887-1.8168-1.3305-3.5622-1.3305-1.4878 0-2.7324 0.3863-3.7338 1.1588-0.9728 0.7439-1.731 1.6881-2.2747 2.8326l-2.5321-2.618c0.4291-0.7153 1.0443-1.4306 1.8454-2.1459 0.8298-0.7439 1.8455-1.3591 3.0472-1.8455 1.2017-0.515 2.5608-0.7725 4.0772-0.7725 2.5465 0 4.4921 0.7153 5.8369 2.1459 1.3448 1.402 2.0171 3.3476 2.0171 5.8368v8.5407c0 0.4864 0.1002 0.8298 0.3005 1.0301 0.2002 0.1716 0.4864 0.2575 0.8583 0.2575h1.3305v3.3905zm-13.305 0.4292c-1.7453 0-3.1044-0.4435-4.0772-1.3305-0.9442-0.9156-1.4163-2.0601-1.4163-3.4334 0-1.402 0.4721-2.5608 1.4163-3.4764 0.9442-0.9442 2.1602-1.7453 3.648-2.4034l8.1544-3.648 0.558 2.4892-7.1673 3.3476c-0.9729 0.4864-1.6882 0.9728-2.1459 1.4592-0.4578 0.4578-0.6867 1.0014-0.6867 1.6309 0 0.7153 0.2432 1.2732 0.7296 1.6738s1.216 0.6009 2.1888 0.6009c0.887 0 1.6881-0.1288 2.4034-0.3863 0.7439-0.2861 1.3734-0.6724 1.8884-1.1588 0.5436-0.4864 0.9585-1.0443 1.2446-1.6738 0.3148-0.6295 0.4721-1.3304 0.4721-2.103l0.1288 1.9743c-0.1717 0.9728-0.5437 1.9599-1.1159 2.9613-0.5722 0.9728-1.3734 1.8026-2.4034 2.4893-1.03 0.658-2.3033 0.9871-3.8197 0.9871z" fill="#fff"/>
<path d="m85.031 34.753c-1.6022 0-2.8898-0.372-3.8626-1.1159s-1.7024-1.6881-2.1888-2.8326c-0.4864-1.1731-0.8012-2.3891-0.9442-3.648l0.2575-1.7596c0 1.1444 0.1717 2.1888 0.515 3.133 0.372 0.9156 0.9585 1.6595 1.7596 2.2317 0.8012 0.5723 1.8598 0.8584 3.176 0.8584 1.6881 0 3.1187-0.6295 4.2918-1.8884s1.7596-3.2046 1.7596-5.8369c0-2.6609-0.5865-4.6065-1.7596-5.8368s-2.6037-1.8455-4.2918-1.8455c-1.3162 0-2.3748 0.2861-3.176 0.8584-0.8011 0.5436-1.3876 1.2875-1.7596 2.2317-0.3433 0.9442-0.515 1.9885-0.515 3.133l-0.2575-1.7596c0.143-1.2876 0.4578-2.5179 0.9442-3.691s1.216-2.1173 2.1888-2.8326c0.9728-0.7439 2.2604-1.1158 3.8626-1.1158 1.7454 0 3.2475 0.4578 4.5064 1.3733 1.2876 0.887 2.2747 2.1459 2.9614 3.7768 0.7153 1.6023 1.0729 3.505 1.0729 5.7081 0 2.1746-0.3576 4.0773-1.0729 5.7081-0.6867 1.6309-1.6738 2.9042-2.9614 3.8197-1.2589 0.887-2.761 1.3305-4.5064 1.3305zm-6.7381-0.515h-3.691v-28.755h3.691v28.755z" fill="#fff"/>
<path d="m115.71 34.238h-2.403c-0.716 0-1.36-0.1288-1.932-0.3863-0.543-0.2575-0.973-0.6724-1.287-1.2446-0.315-0.5722-0.472-1.3448-0.472-2.3176v-8.6265l-0.129-0.6009c0-1.3161-0.329-2.4177-0.987-3.3046-0.63-0.887-1.817-1.3305-3.562-1.3305-1.488 0-2.733 0.3863-3.734 1.1588-0.973 0.7439-1.7314 1.6881-2.275 2.8326l-2.5322-2.618c0.4292-0.7153 1.0444-1.4306 1.8455-2.1459 0.8298-0.7439 1.8457-1.3591 3.0467-1.8455 1.202-0.515 2.561-0.7725 4.078-0.7725 2.546 0 4.492 0.7153 5.837 2.1459 1.344 1.402 2.017 3.3476 2.017 5.8368v8.5407c0 0.4864 0.1 0.8298 0.3 1.0301 0.2 0.1716 0.487 0.2575 0.859 0.2575h1.33v3.3905zm-13.305 0.4292c-1.745 0-3.104-0.4435-4.0768-1.3305-0.9442-0.9156-1.4163-2.0601-1.4163-3.4334 0-1.402 0.4721-2.5608 1.4163-3.4764 0.9441-0.9442 2.1598-1.7453 3.6478-2.4034l8.155-3.648 0.558 2.4892-7.168 3.3476c-0.973 0.4864-1.688 0.9728-2.146 1.4592-0.457 0.4578-0.686 1.0014-0.686 1.6309 0 0.7153 0.243 1.2732 0.729 1.6738 0.487 0.4006 1.216 0.6009 2.189 0.6009 0.887 0 1.688-0.1288 2.403-0.3863 0.744-0.2861 1.374-0.6724 1.889-1.1588 0.544-0.4864 0.958-1.0443 1.245-1.6738 0.314-0.6295 0.472-1.3304 0.472-2.103l0.128 1.9743c-0.171 0.9728-0.543 1.9599-1.116 2.9613-0.572 0.9728-1.373 1.8026-2.403 2.4893-1.03 0.658-2.303 0.9871-3.82 0.9871z" fill="#fff"/>
<path d="m128.58 34.667c-2.003 0-3.734-0.4435-5.193-1.3305s-2.589-2.1459-3.39-3.7768-1.202-3.5336-1.202-5.7081c0-2.2031 0.401-4.1058 1.202-5.7081 0.801-1.6309 1.931-2.8898 3.39-3.7768 1.459-0.8869 3.19-1.3304 5.193-1.3304 2.69 0 4.836 0.701 6.438 2.103 1.602 1.3733 2.647 3.1044 3.133 5.193l-3.648 1.5022c-0.2-1.6595-0.773-3.0186-1.717-4.0772-0.915-1.0587-2.303-1.588-4.163-1.588-1.259 0-2.346 0.3004-3.262 0.9013-0.887 0.6008-1.573 1.4735-2.06 2.618-0.486 1.1444-0.729 2.5321-0.729 4.163s0.243 3.0186 0.729 4.1631c0.487 1.1444 1.173 2.0314 2.06 2.6609 0.916 0.6008 2.003 0.9013 3.262 0.9013 1.86 0 3.248-0.5294 4.163-1.588 0.944-1.0873 1.517-2.4463 1.717-4.0772l3.648 1.4592c-0.486 2.0887-1.531 3.834-3.133 5.236-1.602 1.3734-3.748 2.0601-6.438 2.0601z" fill="#fff"/>
<path d="m148.48 34.667c-1.345 0-2.518-0.2575-3.519-0.7726-1.001-0.5436-1.774-1.3304-2.318-2.3605-0.515-1.03-0.772-2.2603-0.772-3.6909v-14.378h3.691v13.476c0 1.3448 0.329 2.4463 0.987 3.3047s1.86 1.2875 3.605 1.2875c1.345 0 2.418-0.2861 3.219-0.8583 0.801-0.5723 1.373-1.3305 1.717-2.2747 0.372-0.9442 0.558-1.9885 0.558-3.133l0.257 1.7597c-0.143 1.2875-0.501 2.5178-1.073 3.6909-0.544 1.1445-1.345 2.0887-2.403 2.8326-1.03 0.7439-2.347 1.1159-3.949 1.1159zm10.858-0.4292h-3.69v-20.772h3.69v20.772z" fill="#fff"/>
<path d="m172.45 34.667c-1.43 0-2.804-0.2146-4.12-0.6438s-2.46-1.0587-3.433-1.8884c-0.944-0.8584-1.66-1.9313-2.146-3.2189l2.704-2.1029c0.257 0.7725 0.672 1.5307 1.244 2.2746 0.601 0.7153 1.388 1.3019 2.361 1.7597s2.146 0.6866 3.519 0.6866c1.23 0 2.217-0.2288 2.961-0.6866 0.744-0.4864 1.116-1.1874 1.116-2.103 0-0.9442-0.429-1.6166-1.287-2.0172-0.83-0.4005-1.846-0.7439-3.047-1.03l-2.747-0.6438c-0.973-0.2289-1.932-0.5579-2.876-0.9871-0.944-0.4578-1.731-1.0729-2.36-1.8455-0.63-0.8011-0.944-1.8311-0.944-3.0901 0-1.8884 0.672-3.3762 2.017-4.4634 1.344-1.0873 3.147-1.6309 5.407-1.6309 2.204 0 4.035 0.5007 5.494 1.5021 1.488 1.0014 2.518 2.1888 3.09 3.5622l-2.833 2.103c-0.515-1.2303-1.273-2.2031-2.274-2.9184-0.973-0.7153-2.203-1.073-3.691-1.073-1.087 0-1.974 0.2289-2.661 0.6867s-1.03 1.1302-1.03 2.0171c0 0.9156 0.343 1.588 1.03 2.0172 0.715 0.4292 1.774 0.8154 3.176 1.1588l2.661 0.6867c2.346 0.5436 3.963 1.3161 4.849 2.3175 0.916 0.9729 1.374 2.1746 1.374 3.6052 0 1.3733-0.358 2.5035-1.073 3.3905-0.687 0.8583-1.602 1.5021-2.747 1.9313-1.116 0.4292-2.36 0.6438-3.734 0.6438z" fill="#fff"/>
<defs>
<clipPath id="a">
<rect width="40.236" height="40.236" fill="#fff"/>
</clipPath>
</defs>
</svg>
